<?xml version="1.0" standalone="no"?>
<!DOCTYPE svg PUBLIC "-//W3C//DTD SVG 20010904//EN"
 "http://www.w3.org/TR/2001/REC-SVG-20010904/DTD/svg10.dtd">
<svg version="1.0" xmlns="http://www.w3.org/2000/svg"
 width="256.000000pt" height="256.000000pt" viewBox="0 0 256.000000 256.000000"
 preserveAspectRatio="xMidYMid meet">

<g transform="translate(0.000000,256.000000) scale(0.100000,-0.100000)"
fill="#000000" stroke="none">
<path d="M1326 2235 c-57 -30 -121 -86 -161 -140 -82 -112 -231 -381 -408
-735 -247 -493 -383 -805 -394 -906 -9 -73 47 -144 114 -144 65 0 114 41 183
155 19 32 96 119 170 194 152 154 262 234 450 326 l115 57 -55 -5 c-30 -3 -90
-16 -132 -30 -43 -14 -76 -21 -73 -17 6 9 161 78 257 114 l65 25 43 -147 c49
-169 121 -375 156 -445 32 -62 86 -122 141 -154 89 -52 240 -82 341 -68 l50 7
-39 35 c-86 78 -220 314 -320 563 -63 159 -100 273 -91 282 4 4 68 18 142 29
175 28 167 26 146 47 -14 14 -40 17 -174 19 l-157 1 -33 109 c-18 59 -67 241
-109 403 -86 337 -104 392 -140 420 -31 24 -48 25 -87 5z m34 -723 c34 -140
60 -255 58 -258 -3 -2 -74 -22 -159 -43 -85 -22 -174 -47 -198 -55 -24 -9 -46
-14 -48 -12 -2 2 26 71 62 152 103 230 217 475 221 472 1 -2 31 -117 64 -256z"/>
</g>
</svg>
